# xmcd CD database file
#
# Track frame offsets:
#	150
#	12340
#	24033
#	37352
#	48222
#	67695
#	84041
#	94322
#	111287
#	124824
#	136609
#	147499
#	162338
#	175794
#	185174
#	194929
#	207957
#	225570
#	242143
#	254893
#	266224
#	287786
#	302690
#	317303
#	329863
#
# Disc length: 4570 seconds
#
# Revision: 0
# Processed by: cddbd v1.5.2PL0 Copyright (c) Steve Scherf et al.
# Submitted via: CDex 1.51
#
DISCID=7411d819
DTITLE=Django Reinhardt - With strings and brass CD2
DYEAR=1937
DGENRE=Jazz
TTITLE0=Gaiement
TTITLE1=Blues d'autrefois
TTITLE2=Place de Brouckère
TTITLE3=I can't give you anything but love
TTITLE4=Artillerie lourde
TTITLE5=Djangology
TTITLE6=Belleville
TTITLE7=Uptown blues
TTITLE8=Moten swing
TTITLE9=Djangology
TTITLE10=Swing guitar
TTITLE11=Manoir de mes rêves
TTITLE12=Are you in the mood
TTITLE13=Belleville
TTITLE14=Moten swing
TTITLE15=Ride, ride, ride
TTITLE16=Blues riff
TTITLE17=Honnysuckle rose
TTITLE18=Minor blues
TTITLE19=Night and day
TTITLE20=Troublant boléro
TTITLE21=Yesterdays
TTITLE22=Lover
TTITLE23=Time after time
TTITLE24=Blues
EXTD=YEAR: 1937
EXTT0=
EXTT1=
EXTT2=
EXTT3=
EXTT4=
EXTT5=
EXTT6=
EXTT7=
EXTT8=
EXTT9=
EXTT10=
EXTT11=
EXTT12=
EXTT13=
EXTT14=
EXTT15=
EXTT16=
EXTT17=
EXTT18=
EXTT19=
EXTT20=
EXTT21=
EXTT22=
EXTT23=
EXTT24=
PLAYORDER=
